<svg width="1600" height="680" viewBox="0 0 1600 680" fill="none" xmlns="http://www.w3.org/2000/svg" role="img" aria-labelledby="title desc">
  <title id="title">Canvasia Engine</title>
  <desc id="desc">Canvasia Engine is a visual novel creation canvas with editor, runtime, export pipeline, archives, particles, and automated checks.</desc>
  <defs>
    <linearGradient id="heroBg" x1="80" y1="36" x2="1500" y2="650" gradientUnits="userSpaceOnUse">
      <stop stop-color="#F7F0DF"/>
      <stop offset="0.52" stop-color="#EAF4ED"/>
      <stop offset="1" stop-color="#E7ECFA"/>
    </linearGradient>
    <linearGradient id="ink" x1="172" y1="124" x2="606" y2="546" gradientUnits="userSpaceOnUse">
      <stop stop-color="#163B4D"/>
      <stop offset="0.55" stop-color="#2B736D"/>
      <stop offset="1" stop-color="#C66E4E"/>
    </linearGradient>
    <linearGradient id="accent" x1="700" y1="120" x2="1390" y2="570" gradientUnits="userSpaceOnUse">
      <stop stop-color="#246B5C"/>
      <stop offset="0.55" stop-color="#315E88"/>
      <stop offset="1" stop-color="#C66E4E"/>
    </linearGradient>
    <radialGradient id="paperGlow" cx="0" cy="0" r="1" gradientUnits="userSpaceOnUse" gradientTransform="translate(360 170) rotate(28) scale(520 260)">
      <stop stop-color="#FFFFFF" stop-opacity="0.78"/>
      <stop offset="1" stop-color="#FFFFFF" stop-opacity="0"/>
    </radialGradient>
    <filter id="softShadow" x="-20%" y="-20%" width="140%" height="140%">
      <feDropShadow dx="0" dy="28" stdDeviation="28" flood-color="#27443C" flood-opacity="0.22"/>
    </filter>
  </defs>

  <rect width="1600" height="680" rx="44" fill="url(#heroBg)"/>
  <ellipse cx="360" cy="170" rx="520" ry="260" fill="url(#paperGlow)"/>
  <path d="M92 144C250 96 354 118 502 158C690 209 837 226 1030 168C1203 116 1365 120 1508 172" stroke="#D3A777" stroke-width="2" stroke-opacity="0.22"/>
  <path d="M74 532C260 472 442 468 620 518C806 570 986 566 1168 506C1298 462 1434 460 1530 496" stroke="#2B736D" stroke-width="2" stroke-opacity="0.16"/>

  <g opacity="0.18">
    <path d="M126 84H1476" stroke="#315E88"/>
    <path d="M126 596H1476" stroke="#315E88"/>
    <path d="M126 84V596" stroke="#315E88"/>
    <path d="M1476 84V596" stroke="#315E88"/>
    <path d="M256 84V596" stroke="#315E88" stroke-dasharray="8 18"/>
    <path d="M486 84V596" stroke="#315E88" stroke-dasharray="8 18"/>
    <path d="M716 84V596" stroke="#315E88" stroke-dasharray="8 18"/>
    <path d="M946 84V596" stroke="#315E88" stroke-dasharray="8 18"/>
    <path d="M1176 84V596" stroke="#315E88" stroke-dasharray="8 18"/>
    <path d="M126 220H1476" stroke="#315E88" stroke-dasharray="8 18"/>
    <path d="M126 356H1476" stroke="#315E88" stroke-dasharray="8 18"/>
    <path d="M126 492H1476" stroke="#315E88" stroke-dasharray="8 18"/>
  </g>

  <g filter="url(#softShadow)">
    <rect x="130" y="112" width="470" height="456" rx="42" fill="#FFFDF7" fill-opacity="0.92"/>
    <rect x="130" y="112" width="470" height="456" rx="42" stroke="url(#ink)" stroke-opacity="0.32" stroke-width="2"/>
    <rect x="174" y="154" width="382" height="292" rx="34" fill="#F5ECD8" stroke="#D7C9AB" stroke-width="3"/>
    <path d="M236 346C236 250 307 190 397 190C457 190 505 216 532 258L492 291C470 262 441 248 402 248C346 248 302 287 302 346C302 405 346 444 404 444C442 444 474 429 496 401L536 432C507 474 459 500 398 500C307 500 236 442 236 346Z" fill="url(#ink)"/>
    <path d="M256 346C256 267 315 214 397 214C438 214 474 228 502 254" stroke="#FFFDF7" stroke-width="22" stroke-linecap="round"/>
    <path d="M246 498L334 498L356 536L378 498L474 498" stroke="#C66E4E" stroke-width="10" stroke-linecap="round" stroke-linejoin="round"/>
    <path d="M202 180H528" stroke="#2B736D" stroke-width="8" stroke-linecap="round" stroke-opacity="0.26"/>
    <circle cx="230" cy="214" r="10" fill="#C66E4E"/>
    <circle cx="264" cy="214" r="10" fill="#E0B264"/>
    <circle cx="298" cy="214" r="10" fill="#2B736D"/>
    <text x="365" y="406" text-anchor="middle" fill="#173C4D" font-family="SF Pro Display, PingFang SC, Microsoft YaHei, Arial, sans-serif" font-size="44" font-weight="850" letter-spacing="2">
      绘境
    </text>
  </g>

  <g transform="translate(704 142)">
    <text x="0" y="0" fill="#2B736D" font-family="SF Pro Display, PingFang SC, Microsoft YaHei, Arial, sans-serif" font-size="19" font-weight="850" letter-spacing="5">
      CREATOR CANVAS FOR VISUAL NOVELS
    </text>
    <text x="0" y="94" fill="#162B34" font-family="SF Pro Display, PingFang SC, Microsoft YaHei, Arial, sans-serif" font-size="72" font-weight="880" letter-spacing="-1.2">
      Canvasia Engine
    </text>
    <text x="4" y="154" fill="#3A5963" font-family="SF Pro Display, PingFang SC, Microsoft YaHei, Arial, sans-serif" font-size="34" font-weight="700">
      绘境引擎
    </text>
    <text x="4" y="212" fill="#647579" font-family="SF Pro Display, PingFang SC, Microsoft YaHei, Arial, sans-serif" font-size="24" font-weight="560">
      把台词、立绘、音乐、分支和演出，整理成可以发布的作品。
    </text>

    <g transform="translate(0 292)">
      <rect width="184" height="52" rx="17" fill="#FFFDF7" stroke="#2B736D" stroke-opacity="0.28"/>
      <text x="24" y="34" fill="#173C4D" font-family="SF Pro Display, PingFang SC, Microsoft YaHei, Arial, sans-serif" font-size="18" font-weight="800">Visual Editor</text>
    </g>
    <g transform="translate(204 292)">
      <rect width="198" height="52" rx="17" fill="#FFFDF7" stroke="#315E88" stroke-opacity="0.28"/>
      <text x="24" y="34" fill="#173C4D" font-family="SF Pro Display, PingFang SC, Microsoft YaHei, Arial, sans-serif" font-size="18" font-weight="800">Native Runtime</text>
    </g>
    <g transform="translate(422 292)">
      <rect width="194" height="52" rx="17" fill="#FFFDF7" stroke="#C66E4E" stroke-opacity="0.28"/>
      <text x="24" y="34" fill="#173C4D" font-family="SF Pro Display, PingFang SC, Microsoft YaHei, Arial, sans-serif" font-size="18" font-weight="800">Release Checks</text>
    </g>

    <g transform="translate(4 392)">
      <circle cx="8" cy="8" r="8" fill="#C66E4E"/>
      <text x="32" y="15" fill="#587076" font-family="SF Pro Display, PingFang SC, Microsoft YaHei, Arial, sans-serif" font-size="18" font-weight="650">
        Project center · UI skins · Archives · Particles · Export pipeline
      </text>
    </g>
  </g>
</svg>
